<svg width="242" height="47" viewBox="0 0 242 47" fill="none" xmlns="http://www.w3.org/2000/svg">
<path fill-rule="evenodd" clip-rule="evenodd" d="M0 36.857C0 40.664 3.086 43.75 6.893 43.75H36.857C40.664 43.75 43.75 40.664 43.75 36.857V6.893C43.75 3.086 40.664 0 36.857 0H6.893C3.086 0 0 3.086 0 6.893V36.857Z" transform="translate(0.0956116 0.0960693)" fill="white"/>
<path fill-rule="evenodd" clip-rule="evenodd" d="M0 36.857C0 40.664 3.086 43.75 6.893 43.75H36.857C40.664 43.75 43.75 40.664 43.75 36.857V6.893C43.75 3.086 40.664 0 36.857 0H6.893C3.086 0 0 3.086 0 6.893V36.857Z" transform="translate(0.0956116 0.0960693)" stroke="#D0D1D2" stroke-width="0.191"/>
<path fill-rule="evenodd" clip-rule="evenodd" d="M19.251 19.252V22.467C19.251 23.347 19.567 24.099 20.199 24.725C20.831 25.351 21.586 25.663 22.466 25.663C23.358 25.663 24.116 25.351 24.742 24.725C25.368 24.099 25.681 23.34 25.681 22.448C25.681 21.569 25.365 20.816 24.733 20.19C24.102 19.565 23.345 19.252 22.466 19.252H19.251ZM19.251 9.62704H22.466C23.358 9.62704 24.116 9.31004 24.742 8.67904C25.368 8.04704 25.681 7.29104 25.681 6.41105C25.681 5.53204 25.365 4.77604 24.733 4.14404C24.102 3.51204 23.345 3.19604 22.466 3.19604C21.574 3.19604 20.815 3.51204 20.189 4.14404C19.564 4.77604 19.251 5.53204 19.251 6.41105V9.62704ZM12.84 16.038H16.055V12.823H12.84V16.038ZM9.62499 19.252H6.40999C5.53099 19.252 4.77799 19.565 4.15199 20.19C3.52699 20.816 3.21399 21.575 3.21399 22.467C3.21399 23.347 3.52699 24.099 4.15199 24.725C4.77799 25.351 5.53099 25.663 6.40999 25.663C7.30199 25.663 8.06099 25.351 8.68699 24.725C9.31199 24.099 9.62499 23.347 9.62499 22.467V19.252ZM9.62499 9.62704V6.41105C9.62499 5.53204 9.31199 4.77604 8.68699 4.14404C8.06099 3.51204 7.30199 3.19604 6.40999 3.19604C5.53099 3.19604 4.77799 3.51204 4.15199 4.14404C3.52699 4.77604 3.21399 5.53204 3.21399 6.41105C3.21399 7.30304 3.52699 8.06305 4.15199 8.68805C4.77799 9.31404 5.53099 9.62704 6.40999 9.62704H9.62499ZM9.625 12.822H6.41C4.639 12.822 3.127 12.197 1.876 10.946C0.625 9.694 0 8.183 0 6.411C0 4.64 0.625 3.128 1.876 1.877C3.127 0.626 4.639 0 6.41 0C8.182 0 9.696 0.626 10.954 1.877C12.211 3.128 12.84 4.64 12.84 6.411V9.627H16.055V6.411C16.055 4.64 16.68 3.128 17.932 1.877C19.183 0.626 20.694 0 22.466 0C24.238 0 25.749 0.626 27.001 1.877C28.251 3.128 28.877 4.64 28.877 6.411C28.877 8.183 28.251 9.694 27.001 10.946C25.749 12.197 24.238 12.822 22.466 12.822H19.251V16.038H22.466C24.238 16.038 25.749 16.666 27.001 17.923C28.251 19.181 28.877 20.695 28.877 22.467C28.877 24.239 28.251 25.75 27.001 27.001C25.749 28.252 24.238 28.878 22.466 28.878C20.694 28.878 19.183 28.252 17.932 27.001C16.68 25.75 16.055 24.239 16.055 22.467V19.252H12.84V22.467C12.84 24.239 12.211 25.75 10.954 27.001C9.696 28.252 8.182 28.878 6.41 28.878C4.639 28.878 3.127 28.252 1.876 27.001C0.625 25.75 0 24.239 0 22.467C0 20.695 0.625 19.181 1.876 17.923C3.127 16.666 4.639 16.038 6.41 16.038H9.625V12.822Z" transform="translate(7.72299 7.75818)" fill="#74A5D2"/>
<path fill-rule="evenodd" clip-rule="evenodd" d="M13.57 13.93L12.058 8.78303C11.626 7.34303 11.195 5.54303 10.835 4.10303H10.762C10.403 5.54303 10.043 7.37903 9.647 8.78303L8.207 13.93H13.57ZM7.415 18.034L5.687 24.261H0L7.415 0H14.614L22.137 24.261H16.234L14.362 18.034H7.415Z" transform="translate(59.9026 4.02502)" fill="#333333"/>
<path fill-rule="evenodd" clip-rule="evenodd" d="M0.972 13.21C1.98 13.822 4.068 14.542 5.687 14.542C7.343 14.542 8.027 13.966 8.027 13.066C8.027 12.167 7.487 11.734 5.435 11.05C1.8 9.827 0.396 7.847 0.432 5.759C0.432 2.483 3.24 0 7.595 0C9.647 0 11.483 0.468 12.563 1.008L11.591 4.787C10.799 4.356 9.287 3.779 7.775 3.779C6.443 3.779 5.687 4.319 5.687 5.219C5.687 6.047 6.371 6.479 8.531 7.235C11.879 8.387 13.283 10.079 13.319 12.67C13.319 15.946 10.727 18.357 5.687 18.357C3.384 18.357 1.332 17.854 0 17.134L0.972 13.21Z" transform="translate(82.6539 10.288)" fill="#333333"/>
<path fill-rule="evenodd" clip-rule="evenodd" d="M5.471 15.37H5.543C5.939 14.65 6.371 13.93 6.803 13.246L10.367 7.955H16.953L10.655 15.082L17.853 25.557H11.122L6.875 18.322L5.471 20.049V25.557H0V0H5.471V15.37Z" transform="translate(97.8458 2.72913)" fill="#333333"/>
<path fill-rule="evenodd" clip-rule="evenodd" d="M3.13101 21.957C3.92301 22.101 5.07501 22.137 6.29801 22.137C12.994 22.137 16.63 18.394 16.63 11.842C16.665 6.11901 13.426 2.48401 6.80201 2.48401C5.18301 2.48401 3.95901 2.62701 3.13101 2.80801V21.957ZM0 0.504C1.907 0.216 4.175 0 6.659 0C11.158 0 14.361 1.044 16.485 3.023C18.645 5.003 19.905 7.811 19.905 11.734C19.905 15.694 18.681 18.934 16.413 21.165C14.146 23.433 10.402 24.657 5.687 24.657C3.455 24.657 1.583 24.549 0 24.369V0.504Z" transform="translate(121.587 3.84473)" fill="#333333"/>
<mask id="mask0" mask-type="alpha" maskUnits="userSpaceOnUse" x="0" y="-1" width="242" height="48">
<path fill-rule="evenodd" clip-rule="evenodd" d="M0 46.719H241.824V0H0V46.719Z" transform="translate(0 -0.000244141)" fill="white"/>
</mask>
<g mask="url(#mask0)">
<path fill-rule="evenodd" clip-rule="evenodd" d="M0.397003 24.297H3.564V6.875H0.397003V24.297ZM3.924 1.98C3.96 3.06 3.168 3.923 1.908 3.923C0.792 3.923 0 3.06 0 1.98C0 0.864 0.828 0 1.98 0C3.168 0 3.924 0.864 3.924 1.98Z" transform="translate(144.183 3.98865)" fill="#333333"/>
<path fill-rule="evenodd" clip-rule="evenodd" d="M12.887 25.953V10.943H5.579V25.953H2.447V10.943H0V8.531H2.447V7.955C2.447 5.508 3.023 3.384 4.391 2.016C5.399 1.008 6.839 0.396 8.783 0.396C9.791 0.396 10.727 0.72 11.267 1.008L10.619 3.348C10.151 3.132 9.467 2.916 8.747 2.916C6.263 2.916 5.579 5.039 5.579 7.775V8.531H12.887V7.703C12.887 5.256 13.462 3.024 14.939 1.62C16.126 0.468 17.71 0 19.15 0C20.302 0 21.238 0.252 21.85 0.504L21.453 2.952C20.95 2.736 20.338 2.556 19.402 2.556C16.739 2.556 16.018 4.932 16.018 7.595V8.531H20.23V10.943H16.054V25.953H12.887Z" transform="translate(150.38 2.33264)" fill="#333333"/>
<path fill-rule="evenodd" clip-rule="evenodd" d="M12.311 7.41494C12.346 5.39894 11.483 2.26794 7.919 2.26794C4.715 2.26794 3.312 5.21894 3.06 7.41494H12.311ZM3.024 9.683C3.096 13.966 5.832 15.73 8.998 15.73C11.267 15.73 12.634 15.334 13.823 14.83L14.363 17.098C13.247 17.602 11.338 18.178 8.567 18.178C3.204 18.178 0 14.65 0 9.395C0 4.14 3.096 0 8.171 0C13.859 0 15.371 5.003 15.371 8.207C15.371 8.855 15.298 9.359 15.262 9.683H3.024Z" transform="translate(171.255 10.4678)" fill="#333333"/>
<path fill-rule="evenodd" clip-rule="evenodd" d="M0.145 5.832C0.145 3.78 0.109 2.016 0 0.396H2.772L2.88 3.816H3.024C3.816 1.477 5.724 0 7.848 0C8.208 0 8.459 0.037 8.748 0.108V3.096C8.423 3.024 8.1 2.988 7.667 2.988C5.436 2.988 3.852 4.68 3.42 7.056C3.348 7.488 3.277 7.992 3.277 8.532V17.818H0.145V5.832Z" transform="translate(189.034 10.4673)" fill="#333333"/>
<path fill-rule="evenodd" clip-rule="evenodd" d="M12.311 7.41494C12.346 5.39894 11.483 2.26794 7.919 2.26794C4.715 2.26794 3.312 5.21894 3.06 7.41494H12.311ZM3.024 9.683C3.096 13.966 5.832 15.73 8.999 15.73C11.267 15.73 12.634 15.334 13.823 14.83L14.363 17.098C13.247 17.602 11.338 18.178 8.567 18.178C3.204 18.178 0 14.65 0 9.395C0 4.14 3.096 0 8.171 0C13.859 0 15.371 5.003 15.371 8.207C15.371 8.855 15.298 9.359 15.262 9.683H3.024Z" transform="translate(197.781 10.4678)" fill="#333333"/>
<path fill-rule="evenodd" clip-rule="evenodd" d="M0.145 5.111C0.145 3.311 0.109 1.836 0 0.396H2.808L2.989 3.276H3.06C3.924 1.62 5.94 0 8.82 0C11.231 0 14.975 1.44 14.975 7.415V17.818H11.807V7.775C11.807 4.967 10.763 2.628 7.776 2.628C5.688 2.628 4.068 4.103 3.529 5.867C3.384 6.263 3.312 6.803 3.312 7.343V17.818H0.145V5.111Z" transform="translate(215.349 10.4681)" fill="#333333"/>
<path fill-rule="evenodd" clip-rule="evenodd" d="M5.796 0V5.003H10.331V7.415H5.796V16.81C5.796 18.97 6.407 20.193 8.172 20.193C8.999 20.193 9.611 20.085 10.007 19.978L10.151 22.354C9.539 22.605 8.567 22.785 7.344 22.785C5.868 22.785 4.68 22.317 3.924 21.454C3.025 20.518 2.7 18.97 2.7 16.918V7.415H0V5.003H2.7V0.828L5.796 0Z" transform="translate(231.493 5.86035)" fill="#333333"/>
<path fill-rule="evenodd" clip-rule="evenodd" d="M4.953 5.12198L4.095 2.59998C3.9 2.02798 3.77 1.50798 3.641 1.00098H3.614C3.484 1.52098 3.341 2.05398 3.172 2.58698L2.314 5.12198H4.953ZM2.08 6.006L1.17 8.762H0L2.977 0H4.342L7.332 8.762H6.123L5.187 6.006H2.08Z" transform="translate(60.2271 35.0835)" fill="#889AA6"/>
<path fill-rule="evenodd" clip-rule="evenodd" d="M0.052 1.846C0.052 1.196 0.039 0.663 0 0.143H1.014L1.079 1.183H1.105C1.417 0.585 2.145 0 3.185 0C4.056 0 5.408 0.52 5.408 2.678V6.435H4.264V2.808C4.264 1.794 3.887 0.949 2.808 0.949C2.054 0.949 1.469 1.482 1.274 2.119C1.222 2.262 1.197 2.457 1.197 2.652V6.435H0.052V1.846Z" transform="translate(68.7551 37.4103)" fill="#889AA6"/>
<path fill-rule="evenodd" clip-rule="evenodd" d="M0.286 5.265C0.624 5.486 1.223 5.72 1.795 5.72C2.627 5.72 3.016 5.304 3.016 4.784C3.016 4.238 2.691 3.939 1.847 3.627C0.716 3.224 0.182 2.6 0.182 1.846C0.182 0.832 1.001 0 2.353 0C2.99 0 3.55 0.182 3.9 0.39L3.614 1.222C3.367 1.066 2.912 0.858 2.327 0.858C1.651 0.858 1.274 1.248 1.274 1.716C1.274 2.236 1.651 2.47 2.471 2.782C3.562 3.198 4.121 3.744 4.121 4.68C4.121 5.785 3.264 6.565 1.768 6.565C1.079 6.565 0.442 6.396 0 6.136L0.286 5.265Z" transform="translate(75.5796 37.4106)" fill="#889AA6"/>
<path fill-rule="evenodd" clip-rule="evenodd" d="M1.17 0L2.002 3.198C2.185 3.9 2.354 4.55 2.471 5.2H2.51C2.652 4.563 2.86 3.887 3.068 3.211L4.096 0H5.058L6.032 3.146C6.267 3.9 6.448 4.563 6.592 5.2H6.631C6.734 4.563 6.903 3.9 7.111 3.159L8.009 0H9.14L7.111 6.292H6.071L5.109 3.289C4.889 2.587 4.706 1.963 4.551 1.222H4.524C4.368 1.976 4.174 2.626 3.952 3.302L2.939 6.292H1.899L0 0H1.17Z" transform="translate(80.4544 37.5537)" fill="#889AA6"/>
<path fill-rule="evenodd" clip-rule="evenodd" d="M4.44601 2.67797C4.45901 1.94997 4.14701 0.81897 2.86001 0.81897C1.70301 0.81897 1.19601 1.88497 1.10501 2.67797H4.44601ZM1.092 3.497C1.118 5.044 2.106 5.681 3.25 5.681C4.069 5.681 4.563 5.538 4.992 5.356L5.187 6.176C4.784 6.357 4.095 6.565 3.093 6.565C1.157 6.565 0 5.291 0 3.393C0 1.495 1.118 0 2.951 0C5.005 0 5.551 1.807 5.551 2.964C5.551 3.198 5.525 3.38 5.512 3.497H1.092Z" transform="translate(90.2829 37.4103)" fill="#889AA6"/>
<path fill-rule="evenodd" clip-rule="evenodd" d="M0.052 2.106C0.052 1.365 0.039 0.728 0 0.143H1.001L1.04 1.378H1.092C1.378 0.533 2.067 0 2.834 0C2.964 0 3.055 0.013 3.159 0.039V1.118C3.042 1.092 2.925 1.079 2.769 1.079C1.963 1.079 1.391 1.69 1.235 2.548C1.209 2.704 1.183 2.886 1.183 3.081V6.435H0.052V2.106Z" transform="translate(97.1984 37.4106)" fill="#889AA6"/>
<path fill-rule="evenodd" clip-rule="evenodd" d="M0.286 5.265C0.624 5.486 1.223 5.72 1.795 5.72C2.627 5.72 3.016 5.304 3.016 4.784C3.016 4.238 2.691 3.939 1.847 3.627C0.716 3.224 0.182 2.6 0.182 1.846C0.182 0.832 1.001 0 2.353 0C2.99 0 3.55 0.182 3.9 0.39L3.614 1.222C3.367 1.066 2.912 0.858 2.327 0.858C1.651 0.858 1.274 1.248 1.274 1.716C1.274 2.236 1.651 2.47 2.471 2.782C3.562 3.198 4.121 3.744 4.121 4.68C4.121 5.785 3.264 6.565 1.768 6.565C1.079 6.565 0.442 6.396 0 6.136L0.286 5.265Z" transform="translate(101.059 37.4106)" fill="#889AA6"/>
<path fill-rule="evenodd" clip-rule="evenodd" d="M0.884 9.374V3.953H0V3.082H0.884V2.783C0.884 1.899 1.079 1.093 1.613 0.586C2.041 0.17 2.613 0 3.147 0C3.549 0 3.901 0.092 4.121 0.183L3.965 1.067C3.796 0.989 3.563 0.924 3.238 0.924C2.262 0.924 2.016 1.782 2.016 2.744V3.082H3.536V3.953H2.016V9.374H0.884Z" transform="translate(108.638 34.4717)" fill="#889AA6"/>
<path fill-rule="evenodd" clip-rule="evenodd" d="M1.15601 3.30203C1.15601 4.68003 1.94901 5.72003 3.06701 5.72003C4.16001 5.72003 4.97801 4.69303 4.97801 3.27603C4.97801 2.21003 4.44501 0.858032 3.09301 0.858032C1.74101 0.858032 1.15601 2.10603 1.15601 3.30203ZM6.148 3.237C6.148 5.564 4.537 6.578 3.015 6.578C1.312 6.578 0 5.33 0 3.341C0 1.235 1.378 0 3.12 0C4.927 0 6.148 1.313 6.148 3.237Z" transform="translate(112.747 37.4104)" fill="#889AA6"/>
<path fill-rule="evenodd" clip-rule="evenodd" d="M0.052 2.106C0.052 1.365 0.039 0.728 0 0.143H1.001L1.04 1.378H1.092C1.378 0.533 2.067 0 2.834 0C2.964 0 3.055 0.013 3.159 0.039V1.118C3.042 1.092 2.925 1.079 2.769 1.079C1.963 1.079 1.391 1.69 1.235 2.548C1.209 2.704 1.183 2.886 1.183 3.081V6.435H0.052V2.106Z" transform="translate(120.286 37.4106)" fill="#889AA6"/>
<path fill-rule="evenodd" clip-rule="evenodd" d="M1.248 0L2.626 3.718C2.769 4.134 2.925 4.628 3.029 5.005H3.055C3.172 4.628 3.302 4.147 3.458 3.692L4.706 0H5.915L4.199 4.485C3.38 6.643 2.821 7.748 2.041 8.424C1.482 8.918 0.923 9.113 0.637 9.165L0.351 8.203C0.637 8.112 1.014 7.93 1.352 7.644C1.664 7.397 2.054 6.955 2.313 6.37C2.366 6.253 2.405 6.162 2.405 6.097C2.405 6.032 2.379 5.941 2.327 5.798L0 0H1.248Z" transform="translate(126.513 37.5537)" fill="#889AA6"/>
<path fill-rule="evenodd" clip-rule="evenodd" d="M1.15701 3.30203C1.15701 4.68003 1.95001 5.72003 3.06801 5.72003C4.16001 5.72003 4.97901 4.69303 4.97901 3.27603C4.97901 2.21003 4.44601 0.858032 3.09401 0.858032C1.74201 0.858032 1.15701 2.10603 1.15701 3.30203ZM6.149 3.237C6.149 5.564 4.537 6.578 3.015 6.578C1.312 6.578 0 5.33 0 3.341C0 1.235 1.378 0 3.12 0C4.927 0 6.149 1.313 6.149 3.237Z" transform="translate(133.013 37.4104)" fill="#889AA6"/>
<path fill-rule="evenodd" clip-rule="evenodd" d="M5.304 4.576C5.304 5.226 5.318 5.798 5.357 6.292H4.342L4.278 5.265H4.251C3.952 5.772 3.289 6.435 2.171 6.435C1.183 6.435 0 5.889 0 3.679V0H1.144V3.484C1.144 4.68 1.508 5.486 2.548 5.486C3.316 5.486 3.848 4.953 4.056 4.446C4.121 4.277 4.16 4.069 4.16 3.861V0H5.304V4.576Z" transform="translate(140.566 37.5538)" fill="#889AA6"/>
<path fill-rule="evenodd" clip-rule="evenodd" d="M0.052 2.106C0.052 1.365 0.039 0.728 0 0.143H1.001L1.04 1.378H1.092C1.378 0.533 2.067 0 2.834 0C2.964 0 3.055 0.013 3.158 0.039V1.118C3.042 1.092 2.925 1.079 2.769 1.079C1.963 1.079 1.391 1.69 1.235 2.548C1.209 2.704 1.183 2.886 1.183 3.081V6.435H0.052V2.106Z" transform="translate(147.716 37.4106)" fill="#889AA6"/>
<path fill-rule="evenodd" clip-rule="evenodd" d="M4.954 5.12198L4.095 2.59998C3.901 2.02798 3.77 1.50798 3.64 1.00098H3.615C3.485 1.52098 3.341 2.05398 3.172 2.58698L2.314 5.12198H4.954ZM2.08 6.006L1.17 8.762H0L2.977 0H4.343L7.333 8.762H6.124L5.187 6.006H2.08Z" transform="translate(154.15 35.0835)" fill="#889AA6"/>
<path fill-rule="evenodd" clip-rule="evenodd" d="M1.18301 3.87403C1.18301 4.04303 1.20901 4.19903 1.23501 4.34203C1.44301 5.13503 2.13201 5.68103 2.95201 5.68103C4.16101 5.68103 4.86201 4.69303 4.86201 3.25003C4.86201 1.98903 4.20001 0.910034 2.99001 0.910034C2.21001 0.910034 1.48201 1.46903 1.26101 2.32703C1.22201 2.47003 1.18301 2.63903 1.18301 2.79503V3.87403ZM0.052 2.197C0.052 1.391 0.026 0.741 0 0.143H1.027L1.079 1.222H1.105C1.573 0.455 2.314 0 3.341 0C4.862 0 6.006 1.287 6.006 3.198C6.006 5.46 4.628 6.578 3.146 6.578C2.314 6.578 1.586 6.214 1.209 5.59H1.183V9.009H0.052V2.197Z" transform="translate(162.679 37.4106)" fill="#889AA6"/>
<path fill-rule="evenodd" clip-rule="evenodd" d="M1.18301 3.87403C1.18301 4.04303 1.20901 4.19903 1.23501 4.34203C1.44301 5.13503 2.13201 5.68103 2.95201 5.68103C4.16101 5.68103 4.86201 4.69303 4.86201 3.25003C4.86201 1.98903 4.20001 0.910034 2.99001 0.910034C2.21001 0.910034 1.48201 1.46903 1.26101 2.32703C1.22201 2.47003 1.18301 2.63903 1.18301 2.79503V3.87403ZM0.052 2.197C0.052 1.391 0.026 0.741 0 0.143H1.027L1.079 1.222H1.105C1.573 0.455 2.314 0 3.341 0C4.862 0 6.006 1.287 6.006 3.198C6.006 5.46 4.628 6.578 3.146 6.578C2.314 6.578 1.586 6.214 1.209 5.59H1.183V9.009H0.052V2.197Z" transform="translate(170.076 37.4106)" fill="#889AA6"/>
<path fill-rule="evenodd" clip-rule="evenodd" d="M0 9.23H1.144V0H0V9.23Z" transform="translate(177.524 34.6147)" fill="#889AA6"/>
<path fill-rule="evenodd" clip-rule="evenodd" d="M4.446 2.67797C4.459 1.94997 4.147 0.81897 2.86 0.81897C1.703 0.81897 1.196 1.88497 1.104 2.67797H4.446ZM1.092 3.497C1.118 5.044 2.106 5.681 3.25 5.681C4.069 5.681 4.563 5.538 4.992 5.356L5.187 6.176C4.784 6.357 4.094 6.565 3.093 6.565C1.157 6.565 0 5.291 0 3.393C0 1.495 1.118 0 2.951 0C5.005 0 5.55 1.807 5.55 2.964C5.55 3.198 5.525 3.38 5.511 3.497H1.092Z" transform="translate(180.138 37.4103)" fill="#889AA6"/>
<path fill-rule="evenodd" clip-rule="evenodd" d="M4.74501 2.69103C4.74501 2.53503 4.73201 2.35303 4.69301 2.21003C4.52401 1.50803 3.91301 0.910034 3.05501 0.910034C1.87201 0.910034 1.15701 1.91103 1.15701 3.32803C1.15701 4.57603 1.75501 5.66803 3.01601 5.66803C3.75701 5.66803 4.39401 5.21303 4.65401 4.42003C4.70601 4.26403 4.74501 4.04303 4.74501 3.87403V2.69103ZM4.745 5.46H4.719C4.381 6.084 3.679 6.578 2.665 6.578C1.196 6.578 0 5.304 0 3.393C0 1.04 1.52 0 2.847 0C3.822 0 4.472 0.481 4.784 1.092H4.81L4.849 0.143H5.928C5.902 0.676 5.889 1.222 5.889 1.872V9.009H4.745V5.46Z" transform="translate(189.406 37.4105)" fill="#889AA6"/>
<path fill-rule="evenodd" clip-rule="evenodd" d="M5.304 4.576C5.304 5.226 5.318 5.798 5.357 6.292H4.342L4.278 5.265H4.251C3.952 5.772 3.289 6.435 2.171 6.435C1.183 6.435 0 5.889 0 3.679V0H1.144V3.484C1.144 4.68 1.508 5.486 2.548 5.486C3.316 5.486 3.848 4.953 4.056 4.446C4.121 4.277 4.16 4.069 4.16 3.861V0H5.304V4.576Z" transform="translate(197.141 37.5538)" fill="#889AA6"/>
<path fill-rule="evenodd" clip-rule="evenodd" d="M4.446 2.67797C4.459 1.94997 4.147 0.81897 2.86 0.81897C1.703 0.81897 1.196 1.88497 1.104 2.67797H4.446ZM1.092 3.497C1.118 5.044 2.105 5.681 3.25 5.681C4.069 5.681 4.563 5.538 4.992 5.356L5.187 6.176C4.784 6.357 4.094 6.565 3.093 6.565C1.157 6.565 0 5.291 0 3.393C0 1.495 1.118 0 2.951 0C5.005 0 5.55 1.807 5.55 2.964C5.55 3.198 5.525 3.38 5.511 3.497H1.092Z" transform="translate(203.889 37.4103)" fill="#889AA6"/>
<path fill-rule="evenodd" clip-rule="evenodd" d="M0.286 5.265C0.624 5.486 1.223 5.72 1.794 5.72C2.626 5.72 3.016 5.304 3.016 4.784C3.016 4.238 2.691 3.939 1.847 3.627C0.715 3.224 0.182 2.6 0.182 1.846C0.182 0.832 1.001 0 2.353 0C2.99 0 3.549 0.182 3.9 0.39L3.614 1.222C3.367 1.066 2.912 0.858 2.327 0.858C1.651 0.858 1.274 1.248 1.274 1.716C1.274 2.236 1.651 2.47 2.471 2.782C3.562 3.198 4.121 3.744 4.121 4.68C4.121 5.785 3.264 6.565 1.768 6.565C1.079 6.565 0.442 6.396 0 6.136L0.286 5.265Z" transform="translate(210.414 37.4106)" fill="#889AA6"/>
<path fill-rule="evenodd" clip-rule="evenodd" d="M2.093 0V1.807H3.731V2.678H2.093V6.071C2.093 6.851 2.314 7.293 2.951 7.293C3.25 7.293 3.471 7.254 3.614 7.215L3.666 8.073C3.445 8.164 3.094 8.229 2.652 8.229C2.119 8.229 1.69 8.06 1.417 7.748C1.092 7.41 0.975 6.851 0.975 6.11V2.678H0V1.807H0.975V0.299L2.093 0Z" transform="translate(215.289 35.7465)" fill="#889AA6"/>
<path fill-rule="evenodd" clip-rule="evenodd" d="M0.144012 8.77503H1.28801V2.48303H0.144012V8.77503ZM1.417 0.714C1.431 1.105 1.145 1.417 0.689 1.417C0.286 1.417 0 1.105 0 0.714C0 0.312 0.3 0 0.716 0C1.145 0 1.417 0.312 1.417 0.714Z" transform="translate(220.163 35.0707)" fill="#889AA6"/>
<path fill-rule="evenodd" clip-rule="evenodd" d="M1.15701 3.30203C1.15701 4.68003 1.95001 5.72003 3.06801 5.72003C4.16001 5.72003 4.97901 4.69303 4.97901 3.27603C4.97901 2.21003 4.44601 0.858032 3.09401 0.858032C1.74201 0.858032 1.15701 2.10603 1.15701 3.30203ZM6.149 3.237C6.149 5.564 4.537 6.578 3.015 6.578C1.312 6.578 0 5.33 0 3.341C0 1.235 1.378 0 3.12 0C4.927 0 6.149 1.313 6.149 3.237Z" transform="translate(222.894 37.4104)" fill="#889AA6"/>
<path fill-rule="evenodd" clip-rule="evenodd" d="M0.052 1.846C0.052 1.196 0.038 0.663 0 0.143H1.014L1.079 1.183H1.105C1.417 0.585 2.145 0 3.185 0C4.056 0 5.408 0.52 5.408 2.678V6.435H4.264V2.808C4.264 1.794 3.887 0.949 2.808 0.949C2.054 0.949 1.469 1.482 1.274 2.119C1.222 2.262 1.196 2.457 1.196 2.652V6.435H0.052V1.846Z" transform="translate(230.434 37.4103)" fill="#889AA6"/>
<path fill-rule="evenodd" clip-rule="evenodd" d="M0.286 5.265C0.624 5.486 1.223 5.72 1.794 5.72C2.626 5.72 3.016 5.304 3.016 4.784C3.016 4.238 2.691 3.939 1.847 3.627C0.715 3.224 0.182 2.6 0.182 1.846C0.182 0.832 1.001 0 2.353 0C2.99 0 3.55 0.182 3.9 0.39L3.614 1.222C3.367 1.066 2.912 0.858 2.327 0.858C1.651 0.858 1.274 1.248 1.274 1.716C1.274 2.236 1.651 2.47 2.471 2.782C3.562 3.198 4.121 3.744 4.121 4.68C4.121 5.785 3.264 6.565 1.768 6.565C1.079 6.565 0.442 6.396 0 6.136L0.286 5.265Z" transform="translate(237.259 37.4106)" fill="#889AA6"/>
</g>
</svg>
